<?xml version="1.0" encoding="UTF-8" standalone="no"?>
<!DOCTYPE svg PUBLIC "-//W3C//DTD SVG 1.1//EN"
 "http://www.w3.org/Graphics/SVG/1.1/DTD/svg11.dtd">
<!-- Generated by graphviz version 2.43.0 (0)
 -->
<!-- Title: %3 Pages: 1 -->
<svg width="1455pt" height="164pt"
 viewBox="0.00 0.00 1455.00 164.00" xmlns="http://www.w3.org/2000/svg" xmlns:xlink="http://www.w3.org/1999/xlink">
<g id="graph0" class="graph" transform="scale(1 1) rotate(0) translate(4 160)">
<title>%3</title>
<polygon fill="white" stroke="transparent" points="-4,4 -4,-160 1451,-160 1451,4 -4,4"/>
<!-- 128713903750784 -->
<g id="node1" class="node">
<title>128713903750784</title>
<polygon fill="none" stroke="black" points="0,-119.5 0,-155.5 232,-155.5 232,-119.5 0,-119.5"/>
<text text-anchor="middle" x="13" y="-133.8" font-family="Times,serif" font-size="14.00">b</text>
<polyline fill="none" stroke="black" points="26,-119.5 26,-155.5 "/>
<text text-anchor="middle" x="77" y="-133.8" font-family="Times,serif" font-size="14.00">data 2.0000</text>
<polyline fill="none" stroke="black" points="128,-119.5 128,-155.5 "/>
<text text-anchor="middle" x="180" y="-133.8" font-family="Times,serif" font-size="14.00">grad 5.0000</text>
</g>
<!-- 128713905198928* -->
<g id="node9" class="node">
<title>128713905198928*</title>
<ellipse fill="none" stroke="black" cx="336" cy="-109.5" rx="27" ry="18"/>
<text text-anchor="middle" x="336" y="-105.8" font-family="Times,serif" font-size="14.00">*</text>
</g>
<!-- 128713903750784&#45;&gt;128713905198928* -->
<g id="edge5" class="edge">
<title>128713903750784&#45;&gt;128713905198928*</title>
<path fill="none" stroke="black" d="M232.14,-123.1C251.78,-120.6 271.98,-118 291,-115.5 293.7,-115.15 296.5,-114.77 299.31,-114.4"/>
<polygon fill="black" stroke="black" points="299.97,-117.84 309.41,-113.03 299.03,-110.9 299.97,-117.84"/>
<text text-anchor="middle" x="270.5" y="-123.3" font-family="Times,serif" font-size="14.00">dd/db</text>
</g>
<!-- 128713905197776 -->
<g id="node2" class="node">
<title>128713905197776</title>
<polygon fill="none" stroke="black" points="808,-55.5 808,-91.5 1039,-91.5 1039,-55.5 808,-55.5"/>
<text text-anchor="middle" x="820.5" y="-69.8" font-family="Times,serif" font-size="14.00">e</text>
<polyline fill="none" stroke="black" points="833,-55.5 833,-91.5 "/>
<text text-anchor="middle" x="884" y="-69.8" font-family="Times,serif" font-size="14.00">data 7.0000</text>
<polyline fill="none" stroke="black" points="935,-55.5 935,-91.5 "/>
<text text-anchor="middle" x="987" y="-69.8" font-family="Times,serif" font-size="14.00">grad 1.0000</text>
</g>
<!-- 128713905208048+ -->
<g id="node6" class="node">
<title>128713905208048+</title>
<ellipse fill="none" stroke="black" cx="1142" cy="-37.5" rx="27" ry="18"/>
<text text-anchor="middle" x="1142" y="-33.8" font-family="Times,serif" font-size="14.00">+</text>
</g>
<!-- 128713905197776&#45;&gt;128713905208048+ -->
<g id="edge6" class="edge">
<title>128713905197776&#45;&gt;128713905208048+</title>
<path fill="none" stroke="black" d="M1033.07,-55.45C1059.3,-51.08 1085.51,-46.73 1105.53,-43.4"/>
<polygon fill="black" stroke="black" points="1106.12,-46.85 1115.41,-41.76 1104.97,-39.94 1106.12,-46.85"/>
<text text-anchor="middle" x="1077" y="-54.3" font-family="Times,serif" font-size="14.00">dL/de</text>
</g>
<!-- 128713905197776+ -->
<g id="node3" class="node">
<title>128713905197776+</title>
<ellipse fill="none" stroke="black" cx="744" cy="-73.5" rx="27" ry="18"/>
<text text-anchor="middle" x="744" y="-69.8" font-family="Times,serif" font-size="14.00">+</text>
</g>
<!-- 128713905197776+&#45;&gt;128713905197776 -->
<g id="edge1" class="edge">
<title>128713905197776+&#45;&gt;128713905197776</title>
<path fill="none" stroke="black" d="M771.19,-73.5C778.85,-73.5 787.77,-73.5 797.38,-73.5"/>
<polygon fill="black" stroke="black" points="797.62,-77 807.62,-73.5 797.62,-70 797.62,-77"/>
</g>
<!-- 128713903734992 -->
<g id="node4" class="node">
<title>128713903734992</title>
<polygon fill="none" stroke="black" points="808,-0.5 808,-36.5 1039,-36.5 1039,-0.5 808,-0.5"/>
<text text-anchor="middle" x="820.5" y="-14.8" font-family="Times,serif" font-size="14.00">a</text>
<polyline fill="none" stroke="black" points="833,-0.5 833,-36.5 "/>
<text text-anchor="middle" x="884" y="-14.8" font-family="Times,serif" font-size="14.00">data 4.0000</text>
<polyline fill="none" stroke="black" points="935,-0.5 935,-36.5 "/>
<text text-anchor="middle" x="987" y="-14.8" font-family="Times,serif" font-size="14.00">grad 1.0000</text>
</g>
<!-- 128713903734992&#45;&gt;128713905208048+ -->
<g id="edge7" class="edge">
<title>128713903734992&#45;&gt;128713905208048+</title>
<path fill="none" stroke="black" d="M1039.35,-21.74C1058.65,-23.07 1078.43,-24.93 1097,-27.5 1100.08,-27.93 1103.27,-28.46 1106.45,-29.06"/>
<polygon fill="black" stroke="black" points="1105.97,-32.54 1116.47,-31.14 1107.39,-25.68 1105.97,-32.54"/>
<text text-anchor="middle" x="1077" y="-31.3" font-family="Times,serif" font-size="14.00">dL/da</text>
</g>
<!-- 128713905208048 -->
<g id="node5" class="node">
<title>128713905208048</title>
<polygon fill="none" stroke="black" points="1206,-19.5 1206,-55.5 1447,-55.5 1447,-19.5 1206,-19.5"/>
<text text-anchor="middle" x="1219" y="-33.8" font-family="Times,serif" font-size="14.00">L</text>
<polyline fill="none" stroke="black" points="1232,-19.5 1232,-55.5 "/>
<text text-anchor="middle" x="1287.5" y="-33.8" font-family="Times,serif" font-size="14.00">data 11.0000</text>
<polyline fill="none" stroke="black" points="1343,-19.5 1343,-55.5 "/>
<text text-anchor="middle" x="1395" y="-33.8" font-family="Times,serif" font-size="14.00">grad 1.0000</text>
</g>
<!-- 128713905208048+&#45;&gt;128713905208048 -->
<g id="edge2" class="edge">
<title>128713905208048+&#45;&gt;128713905208048</title>
<path fill="none" stroke="black" d="M1169.15,-37.5C1176.91,-37.5 1185.98,-37.5 1195.78,-37.5"/>
<polygon fill="black" stroke="black" points="1195.8,-41 1205.8,-37.5 1195.8,-34 1195.8,-41"/>
</g>
<!-- 128713905195232 -->
<g id="node7" class="node">
<title>128713905195232</title>
<polygon fill="none" stroke="black" points="402.5,-36.5 402.5,-72.5 638.5,-72.5 638.5,-36.5 402.5,-36.5"/>
<text text-anchor="middle" x="415" y="-50.8" font-family="Times,serif" font-size="14.00">x</text>
<polyline fill="none" stroke="black" points="427.5,-36.5 427.5,-72.5 "/>
<text text-anchor="middle" x="481" y="-50.8" font-family="Times,serif" font-size="14.00">data &#45;3.0000</text>
<polyline fill="none" stroke="black" points="534.5,-36.5 534.5,-72.5 "/>
<text text-anchor="middle" x="586.5" y="-50.8" font-family="Times,serif" font-size="14.00">grad 1.0000</text>
</g>
<!-- 128713905195232&#45;&gt;128713905197776+ -->
<g id="edge4" class="edge">
<title>128713905195232&#45;&gt;128713905197776+</title>
<path fill="none" stroke="black" d="M638.73,-57.57C658.89,-58.92 679.59,-60.82 699,-63.5 702.08,-63.93 705.27,-64.46 708.45,-65.06"/>
<polygon fill="black" stroke="black" points="707.97,-68.53 718.47,-67.14 709.39,-61.68 707.97,-68.53"/>
<text text-anchor="middle" x="679" y="-67.3" font-family="Times,serif" font-size="14.00">de/dx</text>
</g>
<!-- 128713905198928 -->
<g id="node8" class="node">
<title>128713905198928</title>
<polygon fill="none" stroke="black" points="400,-91.5 400,-127.5 641,-127.5 641,-91.5 400,-91.5"/>
<text text-anchor="middle" x="413" y="-105.8" font-family="Times,serif" font-size="14.00">d</text>
<polyline fill="none" stroke="black" points="426,-91.5 426,-127.5 "/>
<text text-anchor="middle" x="481.5" y="-105.8" font-family="Times,serif" font-size="14.00">data 10.0000</text>
<polyline fill="none" stroke="black" points="537,-91.5 537,-127.5 "/>
<text text-anchor="middle" x="589" y="-105.8" font-family="Times,serif" font-size="14.00">grad 1.0000</text>
</g>
<!-- 128713905198928&#45;&gt;128713905197776+ -->
<g id="edge8" class="edge">
<title>128713905198928&#45;&gt;128713905197776+</title>
<path fill="none" stroke="black" d="M632.57,-91.45C659.78,-87.03 686.96,-82.61 707.55,-79.26"/>
<polygon fill="black" stroke="black" points="708.37,-82.67 717.68,-77.61 707.25,-75.76 708.37,-82.67"/>
<text text-anchor="middle" x="679" y="-89.3" font-family="Times,serif" font-size="14.00">de/dd</text>
</g>
<!-- 128713905198928*&#45;&gt;128713905198928 -->
<g id="edge3" class="edge">
<title>128713905198928*&#45;&gt;128713905198928</title>
<path fill="none" stroke="black" d="M363.15,-109.5C370.91,-109.5 379.98,-109.5 389.78,-109.5"/>
<polygon fill="black" stroke="black" points="389.8,-113 399.8,-109.5 389.8,-106 389.8,-113"/>
</g>
<!-- 128713903735136 -->
<g id="node10" class="node">
<title>128713903735136</title>
<polygon fill="none" stroke="black" points="1,-64.5 1,-100.5 231,-100.5 231,-64.5 1,-64.5"/>
<text text-anchor="middle" x="13" y="-78.8" font-family="Times,serif" font-size="14.00">c</text>
<polyline fill="none" stroke="black" points="25,-64.5 25,-100.5 "/>
<text text-anchor="middle" x="76" y="-78.8" font-family="Times,serif" font-size="14.00">data 5.0000</text>
<polyline fill="none" stroke="black" points="127,-64.5 127,-100.5 "/>
<text text-anchor="middle" x="179" y="-78.8" font-family="Times,serif" font-size="14.00">grad 2.0000</text>
</g>
<!-- 128713903735136&#45;&gt;128713905198928* -->
<g id="edge9" class="edge">
<title>128713903735136&#45;&gt;128713905198928*</title>
<path fill="none" stroke="black" d="M231.39,-92.71C251.31,-94.95 271.79,-97.55 291,-100.5 293.89,-100.94 296.88,-101.45 299.87,-101.99"/>
<polygon fill="black" stroke="black" points="299.47,-105.48 309.95,-103.93 300.79,-98.6 299.47,-105.48"/>
<text text-anchor="middle" x="270.5" y="-104.3" font-family="Times,serif" font-size="14.00">dd/dc</text>
</g>
</g>
</svg>
